# xmcd
#
# Track frame offsets:
#	150
#	23485
#	48970
#	72090
#	92367
#	116715
#	148380
#	169330
#	191432
#	211462
#
# Disc length: 3035 seconds
#
# Revision: 1
# Processed by: cddbd v1.5.1PL0 Copyright (c) Steve Scherf et al.
# Submitted via: audiograbber 1.83.01
#
DISCID=890bd90a
DTITLE=Various Artist - Tinh Me
DYEAR=1997
DGENRE=VN Vocal
TTITLE0=Thuy Trang - Que Huong
TTITLE1=Chau Tuan - Khuc Ca Ve Me
TTITLE2=Ngoc Xuan, Bao ho - Lien Khuc Me
TTITLE3=Thien Son - Thu Cho Me
TTITLE4=Thao VI - Con Gai Cua Me
TTITLE5=Yen Khoa - Ngau Hung Ru Con
TTITLE6=Kim Tu Long - Long Me 2
TTITLE7=Thuy Trang - Mung Tuoi Me
TTITLE8=Hoang Kim - Tho Ngay
TTITLE9=Huu Nghia - Thu Lam Me Mot Lan
EXTD=Dist by Trung Tam Mimosa, 15101 Weststate St, Westminster CA 92683
EXTT0=Giap Van Thach, Do Trung Quan
EXTT1=La Van Cuong
EXTT2=Nhac Phap, Loi Viet: Quynh Giang
EXTT3=Tran Quang Loc
EXTT4=Giao Tien
EXTT5=Bao Phuc, Anh Thoa
EXTT6=Ngoc Hai
EXTT7=Tran Long An
EXTT8=Vu Tuan Bao
EXTT9=Bao Phuc, Anh Thoa
PLAYORDER=
